<?xml version="1.0" encoding="utf-8"?>
<!-- Generator: Adobe Illustrator 25.2.1, SVG Export Plug-In . SVG Version: 6.00 Build 0)  -->
<svg version="1.1" id="Layer_1" xmlns="http://www.w3.org/2000/svg" xmlns:xlink="http://www.w3.org/1999/xlink" x="0px" y="0px"
	 width="9.2px" height="9.2px" viewBox="0 0 9.2 9.2" style="enable-background:new 0 0 9.2 9.2;" xml:space="preserve">
<style type="text/css">
	.st0{fill:#F39200;}
</style>
<path id="Path" class="st0" d="M9.2,3.5l-3.4,0V0.1c0,0,0-0.1-0.1-0.1l0,0h-2c0,0-0.1,0-0.1,0.1l0,3.4H0.1c0,0-0.1,0-0.1,0.1l0,0v2
	c0,0,0,0.1,0,0.1l0,0h3.4v3.4c0,0,0,0.1,0.1,0.1l0,0h2c0,0,0.1,0,0.1,0l0,0V5.7h3.4c0,0,0.1,0,0.1-0.1l0,0L9.2,3.5
	C9.2,3.6,9.2,3.5,9.2,3.5L9.2,3.5z"/>
</svg>
